<?xml version="1.0" encoding="utf-8"?>
<!-- Svg Vector Icons : http://www.onlinewebfonts.com/icon -->
<!DOCTYPE svg PUBLIC "-//W3C//DTD SVG 1.1//EN" "http://www.w3.org/Graphics/SVG/1.1/DTD/svg11.dtd">
<svg version="1.1" xmlns="http://www.w3.org/2000/svg" xmlns:xlink="http://www.w3.org/1999/xlink" x="0px" y="0px" viewBox="0 0 1000 1000" enable-background="new 0 0 1000 1000" xml:space="preserve">
<metadata> Svg Vector Icons : http://www.onlinewebfonts.com/icon </metadata>
<g><path d="M312.5,826.2l89.8-40.8L214.6,597.7l-40.8,89.8c0,0-8.2,16.3,53,81.6C292.1,834.4,312.5,826.2,312.5,826.2z"/><g><g><polygon points="418.6,948.7 377.8,797.7 541,663 541,867 "/></g></g><g><g><polygon points="51.3,581.4 202.3,622.2 337,458.9 133,458.9 "/></g></g><g><path d="M990,10c0,0-146.9-4.1-293.8,69.4c-44.9,20.4-93.9,53-134.7,93.9C439,295.7,190.1,610,190.1,610s-12.2,36.7,73.5,122.4c85.7,85.7,122.4,73.4,122.4,73.4s318.3-249,440.7-367.3c40.8-40.8,73.5-89.8,98-134.7C994.1,157,990,10,990,10z M704.3,377.3c-44.9,0-81.6-36.7-81.6-81.6c0-44.9,36.7-81.6,81.6-81.6c44.9,0,81.6,36.7,81.6,81.6C785.9,340.6,749.2,377.3,704.3,377.3z"/></g><path d="M275.8,867c-77.5,61.2-195.9,53-195.9,53s-8.2-118.4,53-195.9c-4.1-8.2-8.2-12.2-12.2-20.4c-8.2,8.2-20.4,16.3-28.6,24.5c-93.9,93.8-81.6,261.2-81.6,261.2s167.3,12.2,261.2-81.6c8.2-8.2,16.3-20.4,24.5-28.6C288,875.2,284,871.2,275.8,867z"/></g>
</svg>